<svg width="707" height="341" viewBox="0 0 707 341" fill="none" xmlns="http://www.w3.org/2000/svg">
<path d="M294.688 63V16.125H310.188C314.104 16.125 317.469 16.75 320.281 18C323.115 19.25 325.281 21.0312 326.781 23.3438C328.302 25.6562 329.062 28.4167 329.062 31.625C329.062 34.8125 328.302 37.5729 326.781 39.9062C325.281 42.2396 323.125 44.0417 320.312 45.3125C317.5 46.5625 314.146 47.1875 310.25 47.1875H302.938V63H294.688ZM302.938 39.9688H309.406C313.01 39.9688 315.781 39.2396 317.719 37.7812C319.656 36.3021 320.625 34.25 320.625 31.625C320.625 29 319.656 26.9688 317.719 25.5312C315.781 24.0938 313.01 23.375 309.406 23.375H302.938V39.9688ZM344.281 63H336.062V14.875H344.281V63ZM379.625 63H372.938L372.5 59.1562C371.354 60.5729 369.927 61.6771 368.219 62.4688C366.51 63.2396 364.615 63.625 362.531 63.625C360.323 63.625 358.354 63.1979 356.625 62.3438C354.896 61.4688 353.531 60.2812 352.531 58.7812C351.552 57.2812 351.062 55.5729 351.062 53.6562C351.062 51.6354 351.594 49.8646 352.656 48.3438C353.74 46.8021 355.208 45.5938 357.062 44.7188C358.938 43.8438 361.073 43.4062 363.469 43.4062C364.927 43.4062 366.385 43.5729 367.844 43.9062C369.323 44.2396 370.688 44.7083 371.938 45.3125V44.3125C371.938 42.9375 371.562 41.75 370.812 40.75C370.062 39.75 369.052 38.9792 367.781 38.4375C366.51 37.875 365.083 37.5938 363.5 37.5938C362.062 37.5938 360.625 37.8438 359.188 38.3438C357.75 38.8229 356.406 39.5417 355.156 40.5L352.969 34.4688C354.969 33.3646 357.01 32.5312 359.094 31.9688C361.198 31.4062 363.25 31.125 365.25 31.125C368.188 31.125 370.729 31.7083 372.875 32.875C375.021 34.0208 376.677 35.6667 377.844 37.8125C379.031 39.9375 379.625 42.4479 379.625 45.3438V63ZM364.125 57.4375C365.479 57.4375 366.729 57.1562 367.875 56.5938C369.042 56.0312 369.99 55.25 370.719 54.25C371.469 53.2292 371.865 52.0625 371.906 50.75V50.4062C370.927 49.6979 369.823 49.1562 368.594 48.7812C367.365 48.3854 366.125 48.1875 364.875 48.1875C362.958 48.1875 361.385 48.625 360.156 49.5C358.927 50.3542 358.312 51.4792 358.312 52.875C358.312 53.7292 358.562 54.5104 359.062 55.2188C359.562 55.9062 360.25 56.4479 361.125 56.8438C362.021 57.2396 363.021 57.4375 364.125 57.4375ZM417.844 63H410.156V46.5C410.156 43.8958 409.49 41.8438 408.156 40.3438C406.823 38.8229 405.021 38.0625 402.75 38.0625C400.417 38.0625 398.542 38.8646 397.125 40.4688C395.708 42.0521 395 44.1875 395 46.875V63H387.312V31.75H393.656L393.906 36.7812C395.031 34.9479 396.51 33.5521 398.344 32.5938C400.198 31.6146 402.365 31.125 404.844 31.125C408.885 31.125 412.062 32.3542 414.375 34.8125C416.688 37.2708 417.844 40.6667 417.844 45V63ZM453.906 59.375C450.01 62.2083 445.75 63.625 441.125 63.625C437.771 63.625 434.76 62.8958 432.094 61.4375C429.427 59.9792 427.312 57.9896 425.75 55.4688C424.208 52.9271 423.438 50.0729 423.438 46.9062C423.438 43.8854 424.135 41.1875 425.531 38.8125C426.948 36.4375 428.875 34.5625 431.312 33.1875C433.771 31.8125 436.542 31.125 439.625 31.125C442.833 31.125 445.646 31.8854 448.062 33.4062C450.5 34.9062 452.396 37 453.75 39.6875C455.104 42.3542 455.781 45.4583 455.781 49V50H431.719C432.094 51.4167 432.75 52.6667 433.688 53.75C434.646 54.8333 435.833 55.6771 437.25 56.2812C438.667 56.8854 440.26 57.1875 442.031 57.1875C445.365 57.1875 448.448 56.1042 451.281 53.9375L453.906 59.375ZM431.406 45.5H448.656C448.49 43.9375 448.01 42.5729 447.219 41.4062C446.448 40.2396 445.438 39.3333 444.188 38.6875C442.958 38.0208 441.573 37.6875 440.031 37.6875C438.469 37.6875 437.073 38.0208 435.844 38.6875C434.615 39.3542 433.615 40.2812 432.844 41.4688C432.073 42.6354 431.594 43.9792 431.406 45.5ZM481.656 62.1875C479.365 63.1458 477.146 63.625 475 63.625C472.812 63.625 470.885 63.1562 469.219 62.2188C467.573 61.2812 466.281 59.9792 465.344 58.3125C464.427 56.625 463.969 54.6667 463.969 52.4375V38.625H458.5V31.75H464.375V23.9375H471.656V31.75H480.562V38.625H471.656V51.0312C471.656 52.8021 472.135 54.1979 473.094 55.2188C474.073 56.2396 475.292 56.75 476.75 56.75C478.042 56.75 479.323 56.3542 480.594 55.5625L481.656 62.1875ZM506.219 23.4688C505.135 23.4688 504.219 23.0938 503.469 22.3438C502.74 21.5729 502.375 20.6458 502.375 19.5625C502.375 18.5 502.74 17.5938 503.469 16.8438C504.219 16.0729 505.135 15.6875 506.219 15.6875C507.323 15.6875 508.25 16.0729 509 16.8438C509.75 17.5938 510.125 18.5 510.125 19.5625C510.125 20.6458 509.75 21.5729 509 22.3438C508.25 23.0938 507.323 23.4688 506.219 23.4688ZM510.062 63H502.375V31.75H510.062V63ZM516.312 60.3125L518.062 53.625C518.75 54.3125 519.604 54.9375 520.625 55.5C521.646 56.0625 522.729 56.5104 523.875 56.8438C525.042 57.1562 526.177 57.3125 527.281 57.3125C528.76 57.3125 529.948 57.0104 530.844 56.4062C531.74 55.7812 532.188 54.9688 532.188 53.9688C532.188 53.1771 531.917 52.5208 531.375 52C530.833 51.4583 530.125 50.9896 529.25 50.5938C528.375 50.1771 527.417 49.7708 526.375 49.375C525 48.875 523.604 48.2812 522.188 47.5938C520.771 46.8854 519.583 45.9583 518.625 44.8125C517.688 43.6458 517.219 42.1042 517.219 40.1875C517.219 38.3333 517.688 36.7292 518.625 35.375C519.583 34.0208 520.917 32.9792 522.625 32.25C524.333 31.5 526.323 31.125 528.594 31.125C532.177 31.125 535.75 32.0208 539.312 33.8125L537.094 40.125C536.427 39.625 535.615 39.1667 534.656 38.75C533.698 38.3333 532.719 38 531.719 37.75C530.719 37.5 529.812 37.375 529 37.375C527.812 37.375 526.865 37.6354 526.156 38.1562C525.448 38.6771 525.094 39.3646 525.094 40.2188C525.094 40.8021 525.292 41.3333 525.688 41.8125C526.083 42.2708 526.698 42.7188 527.531 43.1562C528.365 43.5938 529.438 44.0833 530.75 44.625C532.167 45.1667 533.583 45.8021 535 46.5312C536.438 47.2396 537.635 48.1875 538.594 49.375C539.573 50.5417 540.062 52.0938 540.062 54.0312C540.062 55.9479 539.542 57.625 538.5 59.0625C537.479 60.5 536.042 61.625 534.188 62.4375C532.354 63.2292 530.208 63.625 527.75 63.625C523.667 63.625 519.854 62.5208 516.312 60.3125ZM588.062 63H581.375L580.938 59.1562C579.792 60.5729 578.365 61.6771 576.656 62.4688C574.948 63.2396 573.052 63.625 570.969 63.625C568.76 63.625 566.792 63.1979 565.062 62.3438C563.333 61.4688 561.969 60.2812 560.969 58.7812C559.99 57.2812 559.5 55.5729 559.5 53.6562C559.5 51.6354 560.031 49.8646 561.094 48.3438C562.177 46.8021 563.646 45.5938 565.5 44.7188C567.375 43.8438 569.51 43.4062 571.906 43.4062C573.365 43.4062 574.823 43.5729 576.281 43.9062C577.76 44.2396 579.125 44.7083 580.375 45.3125V44.3125C580.375 42.9375 580 41.75 579.25 40.75C578.5 39.75 577.49 38.9792 576.219 38.4375C574.948 37.875 573.521 37.5938 571.938 37.5938C570.5 37.5938 569.062 37.8438 567.625 38.3438C566.188 38.8229 564.844 39.5417 563.594 40.5L561.406 34.4688C563.406 33.3646 565.448 32.5312 567.531 31.9688C569.635 31.4062 571.688 31.125 573.688 31.125C576.625 31.125 579.167 31.7083 581.312 32.875C583.458 34.0208 585.115 35.6667 586.281 37.8125C587.469 39.9375 588.062 42.4479 588.062 45.3438V63ZM572.562 57.4375C573.917 57.4375 575.167 57.1562 576.312 56.5938C577.479 56.0312 578.427 55.25 579.156 54.25C579.906 53.2292 580.302 52.0625 580.344 50.75V50.4062C579.365 49.6979 578.26 49.1562 577.031 48.7812C575.802 48.3854 574.562 48.1875 573.312 48.1875C571.396 48.1875 569.823 48.625 568.594 49.5C567.365 50.3542 566.75 51.4792 566.75 52.875C566.75 53.7292 567 54.5104 567.5 55.2188C568 55.9062 568.688 56.4479 569.562 56.8438C570.458 57.2396 571.458 57.4375 572.562 57.4375Z" fill="#00213F"/>
<path d="M437.969 182H429.156L423.469 161.188L417.781 182H408.969L398.938 150.75H407.062L413.281 173.625L420.062 150.75H426.906L433.656 173.656L439.906 150.75H448.031L437.969 182ZM479.125 182H472.438L472 178.156C470.854 179.573 469.427 180.677 467.719 181.469C466.01 182.24 464.115 182.625 462.031 182.625C459.823 182.625 457.854 182.198 456.125 181.344C454.396 180.469 453.031 179.281 452.031 177.781C451.052 176.281 450.562 174.573 450.562 172.656C450.562 170.635 451.094 168.865 452.156 167.344C453.24 165.802 454.708 164.594 456.562 163.719C458.438 162.844 460.573 162.406 462.969 162.406C464.427 162.406 465.885 162.573 467.344 162.906C468.823 163.24 470.188 163.708 471.438 164.312V163.312C471.438 161.938 471.062 160.75 470.312 159.75C469.562 158.75 468.552 157.979 467.281 157.438C466.01 156.875 464.583 156.594 463 156.594C461.562 156.594 460.125 156.844 458.688 157.344C457.25 157.823 455.906 158.542 454.656 159.5L452.469 153.469C454.469 152.365 456.51 151.531 458.594 150.969C460.698 150.406 462.75 150.125 464.75 150.125C467.688 150.125 470.229 150.708 472.375 151.875C474.521 153.021 476.177 154.667 477.344 156.812C478.531 158.938 479.125 161.448 479.125 164.344V182ZM463.625 176.438C464.979 176.438 466.229 176.156 467.375 175.594C468.542 175.031 469.49 174.25 470.219 173.25C470.969 172.229 471.365 171.062 471.406 169.75V169.406C470.427 168.698 469.323 168.156 468.094 167.781C466.865 167.385 465.625 167.188 464.375 167.188C462.458 167.188 460.885 167.625 459.656 168.5C458.427 169.354 457.812 170.479 457.812 171.875C457.812 172.729 458.062 173.51 458.562 174.219C459.062 174.906 459.75 175.448 460.625 175.844C461.521 176.24 462.521 176.438 463.625 176.438ZM500.656 197.625H492.438L498.938 181.875L483.438 150.75H492.094L502.594 173.094L511.844 150.75H520.062L500.656 197.625Z" fill="#00213F"/>
<path d="M435.562 329.625H427.875V282.75H434.656L435.031 287.125C436.406 285.562 438.062 284.344 440 283.469C441.938 282.573 444.052 282.125 446.344 282.125C449.26 282.125 451.865 282.833 454.156 284.25C456.469 285.667 458.281 287.604 459.594 290.062C460.927 292.5 461.594 295.271 461.594 298.375C461.594 301.479 460.927 304.26 459.594 306.719C458.281 309.156 456.469 311.083 454.156 312.5C451.865 313.917 449.26 314.625 446.344 314.625C444.198 314.625 442.208 314.24 440.375 313.469C438.542 312.698 436.938 311.615 435.562 310.219V329.625ZM444.688 307.688C446.438 307.688 447.99 307.292 449.344 306.5C450.719 305.688 451.781 304.583 452.531 303.188C453.302 301.771 453.688 300.156 453.688 298.344C453.688 296.531 453.302 294.927 452.531 293.531C451.76 292.115 450.698 291.01 449.344 290.219C447.99 289.406 446.438 289 444.688 289C443.042 289 441.552 289.375 440.219 290.125C438.885 290.854 437.812 291.865 437 293.156C436.188 294.427 435.708 295.885 435.562 297.531V299.25C435.708 300.896 436.177 302.354 436.969 303.625C437.781 304.896 438.854 305.896 440.188 306.625C441.521 307.333 443.021 307.688 444.688 307.688ZM475.5 314H467.812V282.75H474.5L474.781 288.438C475.865 286.438 477.323 284.885 479.156 283.781C481.01 282.677 483.135 282.125 485.531 282.125C486.156 282.125 486.792 282.167 487.438 282.25C488.104 282.333 488.76 282.458 489.406 282.625L488.469 289.562C487.177 289.188 485.927 289 484.719 289C482.885 289 481.271 289.427 479.875 290.281C478.5 291.135 477.427 292.323 476.656 293.844C475.885 295.344 475.5 297.094 475.5 299.094V314ZM508.469 314.625C505.281 314.625 502.427 313.917 499.906 312.5C497.406 311.083 495.427 309.156 493.969 306.719C492.531 304.26 491.812 301.479 491.812 298.375C491.812 295.271 492.531 292.5 493.969 290.062C495.427 287.604 497.406 285.667 499.906 284.25C502.427 282.833 505.281 282.125 508.469 282.125C511.635 282.125 514.469 282.833 516.969 284.25C519.469 285.667 521.427 287.604 522.844 290.062C524.281 292.5 525 295.271 525 298.375C525 301.479 524.281 304.26 522.844 306.719C521.427 309.156 519.469 311.083 516.969 312.5C514.469 313.917 511.635 314.625 508.469 314.625ZM508.406 307.719C510.073 307.719 511.562 307.312 512.875 306.5C514.188 305.688 515.219 304.573 515.969 303.156C516.74 301.74 517.125 300.135 517.125 298.344C517.125 296.573 516.74 294.99 515.969 293.594C515.219 292.177 514.188 291.062 512.875 290.25C511.562 289.438 510.073 289.031 508.406 289.031C506.76 289.031 505.271 289.438 503.938 290.25C502.625 291.062 501.583 292.177 500.812 293.594C500.062 294.99 499.688 296.573 499.688 298.344C499.688 300.135 500.062 301.74 500.812 303.156C501.583 304.573 502.625 305.688 503.938 306.5C505.271 307.312 506.76 307.719 508.406 307.719ZM562.812 314H556.031L555.625 309.625C554.271 311.188 552.625 312.417 550.688 313.312C548.75 314.188 546.646 314.625 544.375 314.625C541.438 314.625 538.812 313.917 536.5 312.5C534.188 311.083 532.365 309.156 531.031 306.719C529.719 304.26 529.062 301.479 529.062 298.375C529.062 295.271 529.719 292.5 531.031 290.062C532.365 287.604 534.188 285.667 536.5 284.25C538.812 282.833 541.438 282.125 544.375 282.125C546.521 282.125 548.51 282.51 550.344 283.281C552.177 284.052 553.771 285.135 555.125 286.531V267.125H562.812V314ZM546.062 307.719C547.729 307.719 549.25 307.344 550.625 306.594C552 305.823 553.094 304.771 553.906 303.438C554.719 302.104 555.125 300.583 555.125 298.875V297.781C555.125 296.094 554.719 294.594 553.906 293.281C553.094 291.948 552 290.906 550.625 290.156C549.25 289.385 547.729 289 546.062 289C544.312 289 542.75 289.417 541.375 290.25C540 291.062 538.917 292.177 538.125 293.594C537.333 294.99 536.938 296.573 536.938 298.344C536.938 300.135 537.333 301.74 538.125 303.156C538.917 304.573 540 305.688 541.375 306.5C542.75 307.312 544.312 307.719 546.062 307.719ZM601.031 314H594.688L594.438 308.969C593.312 310.802 591.833 312.208 590 313.188C588.167 314.146 586 314.625 583.5 314.625C579.479 314.625 576.302 313.396 573.969 310.938C571.656 308.458 570.5 305.052 570.5 300.719V282.75H578.188V299.25C578.188 301.854 578.844 303.917 580.156 305.438C581.49 306.938 583.292 307.688 585.562 307.688C587.917 307.688 589.802 306.885 591.219 305.281C592.635 303.677 593.344 301.542 593.344 298.875V282.75H601.031V314ZM636.5 309.188C634.979 310.917 633.135 312.26 630.969 313.219C628.802 314.156 626.438 314.625 623.875 314.625C620.708 314.625 617.865 313.917 615.344 312.5C612.844 311.083 610.865 309.156 609.406 306.719C607.969 304.26 607.25 301.479 607.25 298.375C607.25 295.271 607.969 292.5 609.406 290.062C610.865 287.604 612.844 285.667 615.344 284.25C617.865 282.833 620.708 282.125 623.875 282.125C626.417 282.125 628.76 282.594 630.906 283.531C633.073 284.469 634.917 285.792 636.438 287.5L631.938 292.281C631 291.26 629.865 290.469 628.531 289.906C627.219 289.344 625.823 289.062 624.344 289.062C622.552 289.062 620.958 289.458 619.562 290.25C618.188 291.042 617.104 292.135 616.312 293.531C615.542 294.927 615.156 296.531 615.156 298.344C615.156 300.156 615.542 301.771 616.312 303.188C617.104 304.583 618.188 305.688 619.562 306.5C620.958 307.292 622.552 307.688 624.344 307.688C625.823 307.688 627.229 307.406 628.562 306.844C629.896 306.26 631.021 305.469 631.938 304.469L636.5 309.188ZM662.844 313.188C660.552 314.146 658.333 314.625 656.188 314.625C654 314.625 652.073 314.156 650.406 313.219C648.76 312.281 647.469 310.979 646.531 309.312C645.615 307.625 645.156 305.667 645.156 303.438V289.625H639.688V282.75H645.562V274.938H652.844V282.75H661.75V289.625H652.844V302.031C652.844 303.802 653.323 305.198 654.281 306.219C655.26 307.24 656.479 307.75 657.938 307.75C659.229 307.75 660.51 307.354 661.781 306.562L662.844 313.188ZM666.438 311.312L668.188 304.625C668.875 305.312 669.729 305.938 670.75 306.5C671.771 307.062 672.854 307.51 674 307.844C675.167 308.156 676.302 308.312 677.406 308.312C678.885 308.312 680.073 308.01 680.969 307.406C681.865 306.781 682.312 305.969 682.312 304.969C682.312 304.177 682.042 303.521 681.5 303C680.958 302.458 680.25 301.99 679.375 301.594C678.5 301.177 677.542 300.771 676.5 300.375C675.125 299.875 673.729 299.281 672.312 298.594C670.896 297.885 669.708 296.958 668.75 295.812C667.812 294.646 667.344 293.104 667.344 291.188C667.344 289.333 667.812 287.729 668.75 286.375C669.708 285.021 671.042 283.979 672.75 283.25C674.458 282.5 676.448 282.125 678.719 282.125C682.302 282.125 685.875 283.021 689.438 284.812L687.219 291.125C686.552 290.625 685.74 290.167 684.781 289.75C683.823 289.333 682.844 289 681.844 288.75C680.844 288.5 679.938 288.375 679.125 288.375C677.938 288.375 676.99 288.635 676.281 289.156C675.573 289.677 675.219 290.365 675.219 291.219C675.219 291.802 675.417 292.333 675.812 292.812C676.208 293.271 676.823 293.719 677.656 294.156C678.49 294.594 679.562 295.083 680.875 295.625C682.292 296.167 683.708 296.802 685.125 297.531C686.562 298.24 687.76 299.188 688.719 300.375C689.698 301.542 690.188 303.094 690.188 305.031C690.188 306.948 689.667 308.625 688.625 310.062C687.604 311.5 686.167 312.625 684.312 313.438C682.479 314.229 680.333 314.625 677.875 314.625C673.792 314.625 669.979 313.521 666.438 311.312Z" fill="#00213F"/>
<path d="M166.719 313.188C164.427 314.146 162.208 314.625 160.062 314.625C157.875 314.625 155.948 314.156 154.281 313.219C152.635 312.281 151.344 310.979 150.406 309.312C149.49 307.625 149.031 305.667 149.031 303.438V289.625H143.562V282.75H149.438V274.938H156.719V282.75H165.625V289.625H156.719V302.031C156.719 303.802 157.198 305.198 158.156 306.219C159.135 307.24 160.354 307.75 161.812 307.75C163.104 307.75 164.385 307.354 165.656 306.562L166.719 313.188ZM187.031 314.625C183.844 314.625 180.99 313.917 178.469 312.5C175.969 311.083 173.99 309.156 172.531 306.719C171.094 304.26 170.375 301.479 170.375 298.375C170.375 295.271 171.094 292.5 172.531 290.062C173.99 287.604 175.969 285.667 178.469 284.25C180.99 282.833 183.844 282.125 187.031 282.125C190.198 282.125 193.031 282.833 195.531 284.25C198.031 285.667 199.99 287.604 201.406 290.062C202.844 292.5 203.562 295.271 203.562 298.375C203.562 301.479 202.844 304.26 201.406 306.719C199.99 309.156 198.031 311.083 195.531 312.5C193.031 313.917 190.198 314.625 187.031 314.625ZM186.969 307.719C188.635 307.719 190.125 307.312 191.438 306.5C192.75 305.688 193.781 304.573 194.531 303.156C195.302 301.74 195.688 300.135 195.688 298.344C195.688 296.573 195.302 294.99 194.531 293.594C193.781 292.177 192.75 291.062 191.438 290.25C190.125 289.438 188.635 289.031 186.969 289.031C185.323 289.031 183.833 289.438 182.5 290.25C181.188 291.062 180.146 292.177 179.375 293.594C178.625 294.99 178.25 296.573 178.25 298.344C178.25 300.135 178.625 301.74 179.375 303.156C180.146 304.573 181.188 305.688 182.5 306.5C183.833 307.312 185.323 307.719 186.969 307.719ZM261.156 314H254.375V267.125H262.062V286.531C263.438 285.135 265.031 284.052 266.844 283.281C268.677 282.51 270.667 282.125 272.812 282.125C275.75 282.125 278.365 282.833 280.656 284.25C282.948 285.667 284.75 287.604 286.062 290.062C287.396 292.5 288.062 295.271 288.062 298.375C288.062 301.479 287.396 304.26 286.062 306.719C284.75 309.156 282.948 311.083 280.656 312.5C278.365 313.917 275.75 314.625 272.812 314.625C270.521 314.625 268.406 314.188 266.469 313.312C264.552 312.417 262.906 311.198 261.531 309.656L261.156 314ZM271.125 307.719C272.875 307.719 274.427 307.312 275.781 306.5C277.156 305.688 278.229 304.583 279 303.188C279.792 301.771 280.188 300.167 280.188 298.375C280.188 296.583 279.792 294.99 279 293.594C278.229 292.177 277.156 291.062 275.781 290.25C274.427 289.417 272.875 289 271.125 289C269.479 289 267.99 289.375 266.656 290.125C265.344 290.875 264.281 291.896 263.469 293.188C262.656 294.479 262.188 295.948 262.062 297.594V299.094C262.188 300.76 262.646 302.25 263.438 303.562C264.25 304.854 265.323 305.875 266.656 306.625C267.99 307.354 269.479 307.719 271.125 307.719ZM324.156 314H317.812L317.562 308.969C316.438 310.802 314.958 312.208 313.125 313.188C311.292 314.146 309.125 314.625 306.625 314.625C302.604 314.625 299.427 313.396 297.094 310.938C294.781 308.458 293.625 305.052 293.625 300.719V282.75H301.312V299.25C301.312 301.854 301.969 303.917 303.281 305.438C304.615 306.938 306.417 307.688 308.688 307.688C311.042 307.688 312.927 306.885 314.344 305.281C315.76 303.677 316.469 301.542 316.469 298.875V282.75H324.156V314ZM336.406 274.469C335.323 274.469 334.406 274.094 333.656 273.344C332.927 272.573 332.562 271.646 332.562 270.562C332.562 269.5 332.927 268.594 333.656 267.844C334.406 267.073 335.323 266.688 336.406 266.688C337.51 266.688 338.438 267.073 339.188 267.844C339.938 268.594 340.312 269.5 340.312 270.562C340.312 271.646 339.938 272.573 339.188 273.344C338.438 274.094 337.51 274.469 336.406 274.469ZM340.25 314H332.562V282.75H340.25V314ZM356.906 314H348.688V265.875H356.906V314ZM396.875 314H390.094L389.688 309.625C388.333 311.188 386.688 312.417 384.75 313.312C382.812 314.188 380.708 314.625 378.438 314.625C375.5 314.625 372.875 313.917 370.562 312.5C368.25 311.083 366.427 309.156 365.094 306.719C363.781 304.26 363.125 301.479 363.125 298.375C363.125 295.271 363.781 292.5 365.094 290.062C366.427 287.604 368.25 285.667 370.562 284.25C372.875 282.833 375.5 282.125 378.438 282.125C380.583 282.125 382.573 282.51 384.406 283.281C386.24 284.052 387.833 285.135 389.188 286.531V267.125H396.875V314ZM380.125 307.719C381.792 307.719 383.312 307.344 384.688 306.594C386.062 305.823 387.156 304.771 387.969 303.438C388.781 302.104 389.188 300.583 389.188 298.875V297.781C389.188 296.094 388.781 294.594 387.969 293.281C387.156 291.948 386.062 290.906 384.688 290.156C383.312 289.385 381.792 289 380.125 289C378.375 289 376.812 289.417 375.438 290.25C374.062 291.062 372.979 292.177 372.188 293.594C371.396 294.99 371 296.573 371 298.344C371 300.135 371.396 301.74 372.188 303.156C372.979 304.573 374.062 305.688 375.438 306.5C376.812 307.312 378.375 307.719 380.125 307.719Z" fill="#00213F"/>
<rect x="116" y="119" width="258" height="96" rx="48" fill="#75C9A8"/>
<path d="M164.094 187H157.312V140.125H165V159.531C166.375 158.135 167.969 157.052 169.781 156.281C171.615 155.51 173.604 155.125 175.75 155.125C178.688 155.125 181.302 155.833 183.594 157.25C185.885 158.667 187.688 160.604 189 163.062C190.333 165.5 191 168.271 191 171.375C191 174.479 190.333 177.26 189 179.719C187.688 182.156 185.885 184.083 183.594 185.5C181.302 186.917 178.688 187.625 175.75 187.625C173.458 187.625 171.344 187.188 169.406 186.312C167.49 185.417 165.844 184.198 164.469 182.656L164.094 187ZM174.062 180.719C175.812 180.719 177.365 180.312 178.719 179.5C180.094 178.688 181.167 177.583 181.938 176.188C182.729 174.771 183.125 173.167 183.125 171.375C183.125 169.583 182.729 167.99 181.938 166.594C181.167 165.177 180.094 164.062 178.719 163.25C177.365 162.417 175.812 162 174.062 162C172.417 162 170.927 162.375 169.594 163.125C168.281 163.875 167.219 164.896 166.406 166.188C165.594 167.479 165.125 168.948 165 170.594V172.094C165.125 173.76 165.583 175.25 166.375 176.562C167.188 177.854 168.26 178.875 169.594 179.625C170.927 180.354 172.417 180.719 174.062 180.719ZM225.531 183.375C221.635 186.208 217.375 187.625 212.75 187.625C209.396 187.625 206.385 186.896 203.719 185.438C201.052 183.979 198.938 181.99 197.375 179.469C195.833 176.927 195.062 174.073 195.062 170.906C195.062 167.885 195.76 165.188 197.156 162.812C198.573 160.438 200.5 158.562 202.938 157.188C205.396 155.812 208.167 155.125 211.25 155.125C214.458 155.125 217.271 155.885 219.688 157.406C222.125 158.906 224.021 161 225.375 163.688C226.729 166.354 227.406 169.458 227.406 173V174H203.344C203.719 175.417 204.375 176.667 205.312 177.75C206.271 178.833 207.458 179.677 208.875 180.281C210.292 180.885 211.885 181.188 213.656 181.188C216.99 181.188 220.073 180.104 222.906 177.938L225.531 183.375ZM203.031 169.5H220.281C220.115 167.938 219.635 166.573 218.844 165.406C218.073 164.24 217.062 163.333 215.812 162.688C214.583 162.021 213.198 161.688 211.656 161.688C210.094 161.688 208.698 162.021 207.469 162.688C206.24 163.354 205.24 164.281 204.469 165.469C203.698 166.635 203.219 167.979 203.031 169.5ZM253.281 186.188C250.99 187.146 248.771 187.625 246.625 187.625C244.438 187.625 242.51 187.156 240.844 186.219C239.198 185.281 237.906 183.979 236.969 182.312C236.052 180.625 235.594 178.667 235.594 176.438V162.625H230.125V155.75H236V147.938H243.281V155.75H252.188V162.625H243.281V175.031C243.281 176.802 243.76 178.198 244.719 179.219C245.698 180.24 246.917 180.75 248.375 180.75C249.667 180.75 250.948 180.354 252.219 179.562L253.281 186.188ZM279.656 186.188C277.365 187.146 275.146 187.625 273 187.625C270.812 187.625 268.885 187.156 267.219 186.219C265.573 185.281 264.281 183.979 263.344 182.312C262.427 180.625 261.969 178.667 261.969 176.438V162.625H256.5V155.75H262.375V147.938H269.656V155.75H278.562V162.625H269.656V175.031C269.656 176.802 270.135 178.198 271.094 179.219C272.073 180.24 273.292 180.75 274.75 180.75C276.042 180.75 277.323 180.354 278.594 179.562L279.656 186.188ZM313.781 183.375C309.885 186.208 305.625 187.625 301 187.625C297.646 187.625 294.635 186.896 291.969 185.438C289.302 183.979 287.188 181.99 285.625 179.469C284.083 176.927 283.312 174.073 283.312 170.906C283.312 167.885 284.01 165.188 285.406 162.812C286.823 160.438 288.75 158.562 291.188 157.188C293.646 155.812 296.417 155.125 299.5 155.125C302.708 155.125 305.521 155.885 307.938 157.406C310.375 158.906 312.271 161 313.625 163.688C314.979 166.354 315.656 169.458 315.656 173V174H291.594C291.969 175.417 292.625 176.667 293.562 177.75C294.521 178.833 295.708 179.677 297.125 180.281C298.542 180.885 300.135 181.188 301.906 181.188C305.24 181.188 308.323 180.104 311.156 177.938L313.781 183.375ZM291.281 169.5H308.531C308.365 167.938 307.885 166.573 307.094 165.406C306.323 164.24 305.312 163.333 304.062 162.688C302.833 162.021 301.448 161.688 299.906 161.688C298.344 161.688 296.948 162.021 295.719 162.688C294.49 163.354 293.49 164.281 292.719 165.469C291.948 166.635 291.469 167.979 291.281 169.5ZM329.562 187H321.875V155.75H328.562L328.844 161.438C329.927 159.438 331.385 157.885 333.219 156.781C335.073 155.677 337.198 155.125 339.594 155.125C340.219 155.125 340.854 155.167 341.5 155.25C342.167 155.333 342.823 155.458 343.469 155.625L342.531 162.562C341.24 162.188 339.99 162 338.781 162C336.948 162 335.333 162.427 333.938 163.281C332.562 164.135 331.49 165.323 330.719 166.844C329.948 168.344 329.562 170.094 329.562 172.094V187Z" fill="white"/>
<rect x="44.5" y="250.5" width="183" height="87" rx="43.5" stroke="#FFAA9B" stroke-width="7"/>
<circle cx="224.5" cy="40.5" r="40.5" fill="#FFAA9B"/>
<circle cx="587.5" cy="167.5" r="40.5" fill="#FFAA9B"/>
<circle cx="628.5" cy="46.5" r="15.5" stroke="#75C9A8" stroke-width="10"/>
<circle cx="687" cy="46" r="20" fill="#CFCFAB"/>
<circle cx="93" cy="294" r="29" fill="#CFCFAB"/>
<path d="M55.5251 164.525C54.1583 165.892 54.1583 168.108 55.5251 169.475C56.892 170.842 59.108 170.842 60.4749 169.475L55.5251 164.525ZM90.5 138C90.5 136.067 88.933 134.5 87 134.5L55.5 134.5C53.567 134.5 52 136.067 52 138C52 139.933 53.567 141.5 55.5 141.5L83.5 141.5L83.5 169.5C83.5 171.433 85.067 173 87 173C88.933 173 90.5 171.433 90.5 169.5L90.5 138ZM60.4749 169.475L89.4749 140.475L84.5251 135.525L55.5251 164.525L60.4749 169.475Z" fill="#00213F"/>
<path d="M697 170.5C698.933 170.5 700.5 168.933 700.5 167C700.5 165.067 698.933 163.5 697 163.5V170.5ZM566.525 164.525C565.158 165.892 565.158 168.108 566.525 169.475L588.799 191.749C590.166 193.116 592.382 193.116 593.749 191.749C595.116 190.382 595.116 188.166 593.749 186.799L573.95 167L593.749 147.201C595.116 145.834 595.116 143.618 593.749 142.251C592.382 140.884 590.166 140.884 588.799 142.251L566.525 164.525ZM697 163.5L569 163.5V170.5L697 170.5V163.5Z" fill="#00213F"/>
<path d="M31 37.5C29.067 37.5 27.5 39.067 27.5 41C27.5 42.933 29.067 44.5 31 44.5L31 37.5ZM245.475 43.4749C246.842 42.108 246.842 39.8919 245.475 38.5251L223.201 16.2512C221.834 14.8844 219.618 14.8844 218.251 16.2512C216.884 17.6181 216.884 19.8342 218.251 21.201L238.05 41L218.251 60.799C216.884 62.1658 216.884 64.3819 218.251 65.7487C219.618 67.1156 221.834 67.1156 223.201 65.7487L245.475 43.4749ZM31 44.5L243 44.5L243 37.5L31 37.5L31 44.5Z" fill="#00213F"/>
<path d="M54 191L87 191" stroke="#00213F" stroke-width="7" stroke-linecap="round"/>
<circle cx="15.5" cy="41.5" r="12" stroke="#00213F" stroke-width="7"/>
</svg>
