<svg width="34" height="40" viewBox="0 0 34 40" fill="none" xmlns="http://www.w3.org/2000/svg">
<circle cx="16.6876" cy="23.1843" r="16.6876" fill="#F08D6E"/>
<path d="M15.2637 16.352C15.2637 15.512 15.6837 15.092 16.5237 15.092C17.3637 15.092 17.7837 15.512 17.7837 16.352V29.708C17.7837 30.548 17.3637 30.968 16.5237 30.968C15.6837 30.968 15.2637 30.548 15.2637 29.708V16.352ZM9.50373 24.488C8.66373 24.488 8.24373 24.068 8.24373 23.228C8.24373 22.388 8.66373 21.968 9.50373 21.968H22.8597C23.6997 21.968 24.1197 22.388 24.1197 23.228C24.1197 24.068 23.6997 24.488 22.8597 24.488H9.50373ZM9.50373 24.488C8.66373 24.488 8.24373 24.068 8.24373 23.228C8.24373 22.388 8.66373 21.968 9.50373 21.968H22.8597C23.6997 21.968 24.1197 22.388 24.1197 23.228C24.1197 24.068 23.6997 24.488 22.8597 24.488H9.50373Z" fill="#FBF7F0"/>
</svg>
