<svg width="66" height="66" viewBox="0 0 66 66" fill="none" xmlns="http://www.w3.org/2000/svg">
<path d="M66 33C66 26.8475 64.28 20.8175 61.0342 15.5908C57.7885 10.3641 53.1462 6.14882 47.6314 3.42093C42.1167 0.693049 35.9492 -0.438835 29.8252 0.153071C23.7012 0.744977 17.8647 3.0371 12.9745 6.77066L22.9872 19.8853C25.4323 18.0185 28.3506 16.8725 31.4126 16.5765C34.4746 16.2806 37.5584 16.8465 40.3157 18.2105C43.0731 19.5744 45.3942 21.682 47.0171 24.2954C48.64 26.9087 49.5 29.9237 49.5 33H66Z" fill="#FFAA9B"/>
<path d="M12.9789 6.76725C6.48769 11.7214 2.06378 18.9064 0.562502 26.933C-0.938772 34.9596 0.589221 43.2578 4.85106 50.2232C9.11291 57.1886 15.8059 62.3265 23.6361 64.6436C31.4662 66.9607 39.8774 66.2924 47.2434 62.7679L40.1217 47.8839C36.4387 49.6462 32.2331 49.9803 28.318 48.8218C24.403 47.6632 21.0565 45.0943 18.9255 41.6116C16.7946 38.1289 16.0306 33.9798 16.7813 29.9665C17.5319 25.9532 19.7438 22.3607 22.9895 19.8836L12.9789 6.76725Z" fill="#75C9A8"/>
<path d="M47.0228 62.8724C52.7019 60.2065 57.5034 55.977 60.8645 50.6796C64.2256 45.3823 66.007 39.2366 66 32.9629L49.5 32.9815C49.5035 36.1183 48.6128 39.1911 46.9323 41.8398C45.2517 44.4885 42.851 46.6032 40.0114 47.9362L47.0228 62.8724Z" fill="#CFCFAB"/>
</svg>
